<svg id="line_color" height="512" viewBox="0 0 74 74" width="512" xmlns="http://www.w3.org/2000/svg" data-name="line color"><path d="m47.986 17.152v-4.27a1.507 1.507 0 0 0 -1.507-1.507h-15.958a1.507 1.507 0 0 0 -1.507 1.506v4.271h-5v-4.688a5.147 5.147 0 0 1 5.147-5.147h18.679a5.146 5.146 0 0 1 5.146 5.147v4.688z" fill="#84879c"/><path d="m52.986 17.652h-5a.5.5 0 0 1 -.5-.5v-4.27a1.008 1.008 0 0 0 -1.007-1.007h-15.958a1.008 1.008 0 0 0 -1.007 1.006v4.271a.5.5 0 0 1 -.5.5h-5a.5.5 0 0 1 -.5-.5v-4.688a5.654 5.654 0 0 1 5.647-5.647h18.679a5.654 5.654 0 0 1 5.646 5.647v4.688a.5.5 0 0 1 -.5.5zm-4.5-1h4v-4.188a4.652 4.652 0 0 0 -4.646-4.647h-18.679a4.653 4.653 0 0 0 -4.647 4.647v4.188h4v-3.771a2.009 2.009 0 0 1 2.007-2.006h15.958a2.009 2.009 0 0 1 2.007 2.007z" fill="#323c6b"/><path d="m72.5 19.915v41.844a3.768 3.768 0 0 1 -3.763 3.763h-60.474a3.769 3.769 0 0 1 -3.763-3.763v-41.844a3.608 3.608 0 0 1 .2-1.207 3.758 3.758 0 0 1 3.565-2.556h60.472a3.758 3.758 0 0 1 3.563 2.567 3.615 3.615 0 0 1 .2 1.196z" fill="#bbbbcd"/><path d="m72.3 18.719a3.755 3.755 0 0 0 -2.827-2.486c.008.1.024.2.024.3v41.841a3.768 3.768 0 0 1 -3.763 3.763h-60.471a3.754 3.754 0 0 1 -.732-.074 3.757 3.757 0 0 0 3.732 3.459h60.474a3.768 3.768 0 0 0 3.763-3.763v-41.844a3.615 3.615 0 0 0 -.2-1.196z" fill="#9297ab"/><path d="m41.905 37.228h16.322a4.091 4.091 0 0 0 3.456-1.9l10.617-16.609a3.758 3.758 0 0 0 -3.566-2.567h-60.471a3.757 3.757 0 0 0 -3.563 2.556l10.629 16.622a4.071 4.071 0 0 0 3.444 1.9h16.327" fill="#bbbbcd"/><g fill="#323c6b"><path d="m58.227 37.728h-16.322a.5.5 0 0 1 0-1h16.322a3.59 3.59 0 0 0 3.034-1.667l10.487-16.4a3.249 3.249 0 0 0 -3.011-2.007h-60.474a3.261 3.261 0 0 0 -3.009 2l10.5 16.41a3.553 3.553 0 0 0 3.023 1.668h16.323a.5.5 0 0 1 0 1h-16.327a4.546 4.546 0 0 1 -3.868-2.132l-10.629-16.622a.5.5 0 0 1 -.052-.43 4.261 4.261 0 0 1 4.039-2.9h60.474a4.244 4.244 0 0 1 4.04 2.91.5.5 0 0 1 -.053.427l-10.624 16.615a4.583 4.583 0 0 1 -3.873 2.128z"/><path d="m49.417 69.022h-1.042a.5.5 0 0 1 0-1h1.042a.5.5 0 0 1 0 1z"/><path d="m45.583 69.022h-8.989a.5.5 0 0 1 0-1h8.989a.5.5 0 0 1 0 1z"/><path d="m1.5 24.479a.5.5 0 0 1 -.5-.5v-.9a.5.5 0 0 1 1 0v.9a.5.5 0 0 1 -.5.5z"/><path d="m1.5 20.958a.5.5 0 0 1 -.5-.5v-.543a7.091 7.091 0 0 1 .4-2.373 7.224 7.224 0 0 1 5.509-4.75.5.5 0 1 1 .186.982 6.228 6.228 0 0 0 -4.75 4.1 6.12 6.12 0 0 0 -.345 2.041v.543a.5.5 0 0 1 -.5.5z"/></g><path d="m37.844 33.312h1.312a1.814 1.814 0 0 1 1.8 1.6l.713 6.124a1.813 1.813 0 0 1 -1.8 2.022h-2.738a1.813 1.813 0 0 1 -1.8-2.022l.713-6.124a1.814 1.814 0 0 1 1.8-1.6z" fill="#fcd462"/><path d="m39.869 43.562h-2.738a2.312 2.312 0 0 1 -2.3-2.58l.713-6.124a2.313 2.313 0 0 1 2.3-2.046h1.312a2.314 2.314 0 0 1 2.3 2.045l.713 6.125a2.313 2.313 0 0 1 -2.3 2.58zm-2.025-9.75a1.314 1.314 0 0 0 -1.3 1.162l-.717 6.126a1.311 1.311 0 0 0 1.3 1.464h2.738a1.3 1.3 0 0 0 .981-.439 1.315 1.315 0 0 0 .323-1.025l-.713-6.125a1.313 1.313 0 0 0 -1.3-1.161z" fill="#323c6b"/><path d="m38.5 38.64a.5.5 0 0 1 -.5-.5v-1.824a.5.5 0 0 1 1 0v1.824a.5.5 0 0 1 -.5.5z" fill="#323c6b"/><path d="m68.737 66.022h-60.474a4.268 4.268 0 0 1 -4.263-4.263v-41.844a4.09 4.09 0 0 1 .227-1.373 4.257 4.257 0 0 1 4.036-2.89h60.474a4.244 4.244 0 0 1 4.04 2.91 4.072 4.072 0 0 1 .223 1.353v41.844a4.268 4.268 0 0 1 -4.263 4.263zm-60.474-49.37a3.262 3.262 0 0 0 -3.092 2.217 3.131 3.131 0 0 0 -.171 1.046v41.844a3.266 3.266 0 0 0 3.263 3.263h60.474a3.266 3.266 0 0 0 3.263-3.263v-41.844a3.1 3.1 0 0 0 -.169-1.03 3.249 3.249 0 0 0 -3.094-2.233z" fill="#323c6b"/><path d="m59 41.528h-.6a.65.65 0 1 1 0-1.3h.6a.65.65 0 0 1 0 1.3z" fill="#fff"/><path d="m55.792 41.528h-8.469a.65.65 0 0 1 0-1.3h8.469a.65.65 0 0 1 0 1.3z" fill="#fff"/></svg>